<svg xmlns="http://www.w3.org/2000/svg" width="34.33" height="28.8" viewBox="0 0 34.33 28.8">
    <defs>
        <style>
            .cls-1{fill:#b6b6b6}
        </style>
    </defs>
    <path id="Path_24" d="M51.794 23H18.536a.505.505 0 0 0-.536.533v22.4a.505.505 0 0 0 .536.533h15.02V48.6h-6.437a.505.505 0 0 0-.536.533v2.133a.505.505 0 0 0 .536.533h16.092a.505.505 0 0 0 .536-.533v-2.133a.505.505 0 0 0-.536-.533h-6.437v-2.133h15.02a.505.505 0 0 0 .536-.533v-22.4a.505.505 0 0 0-.536-.534zm-9.119 27.733h-15.02v-1.066h15.02zM35.7 48.6h-1.071v-2.133H35.7zm15.556-3.2H19.073V24.067h32.184zm-1.072-20.267H20.146v19.2h30.038zm-1.072 18.134H21.218V26.2h27.894zm-24.675-8a.505.505 0 0 1 .536-.533h2.95l.912-1.387a.434.434 0 0 1 .483-.213.408.408 0 0 1 .429.32l.429.8 1.234-5.494a.522.522 0 0 1 .536-.427.577.577 0 0 1 .536.427l1.77 9.6 1.985-6.453a.515.515 0 0 1 .483-.373.646.646 0 0 1 .536.373l.59 1.707 1.126-3.307a.5.5 0 0 1 .966 0l1.5 4.427h3.916a.533.533 0 1 1 0 1.067h-4.289a.515.515 0 0 1-.483-.373l-1.126-3.253-1.126 3.305a.543.543 0 0 1-.483.32.515.515 0 0 1-.483-.373l-.536-1.653-2.2 6.933a.533.533 0 0 1-.536.373h-.054a.515.515 0 0 1-.483-.427l-1.663-9.12-1.019 4.373a.576.576 0 0 1-.483.427.661.661 0 0 1-.536-.267l-.644-1.333-.536.853a.967.967 0 0 1-.483.213h-3.218a.505.505 0 0 1-.536-.532z" class="cls-1" data-name="Path 24" transform="translate(-18 -23)"/>
</svg>
