<svg xmlns="http://www.w3.org/2000/svg" width="34.335" height="28.8" viewBox="0 0 34.335 28.8">
    <defs>
        <style>
            .cls-1{fill:#b6b6b6}
        </style>
    </defs>
    <g id="Group_7" data-name="Group 7" transform="translate(-955.84 -1253.699)">
        <path id="Path_18" d="M1126.979 1256.006a5.517 5.517 0 0 1 1.227-1.469 3.949 3.949 0 0 1 2.615-.838 4.373 4.373 0 0 1 4.378 4.379 10.487 10.487 0 0 1-2.514 6.088 58.033 58.033 0 0 1-5.337 5.827l-.382.382-.382-.382a58.031 58.031 0 0 1-5.337-5.827 10.487 10.487 0 0 1-2.515-6.088 4.373 4.373 0 0 1 4.378-4.379 4.073 4.073 0 0 1 3.849 2.307zm1.9-.63a5.709 5.709 0 0 0-1.415 1.985l-.476.952-.476-.952c-.865-1.723-1.71-2.588-3.366-2.588a3.319 3.319 0 0 0-3.312 3.313 9.487 9.487 0 0 0 2.293 5.444 52.7 52.7 0 0 0 4.861 5.331 54.341 54.341 0 0 0 4.861-5.331 9.5 9.5 0 0 0 2.293-5.444 3.32 3.32 0 0 0-3.312-3.312 2.965 2.965 0 0 0-1.953.601z" class="cls-1" data-name="Path 18" transform="translate(-161.755)"/>
        <path id="Path_19" d="M976.208 3423.418a.533.533 0 1 1-1.066.033 1.263 1.263 0 0 0-.972-1.22h-6.524a.421.421 0 0 1-.161-.027.877.877 0 0 1-.134-.04l-.013-.007c-1.1-.349-3.084-1.032-4.962-1.676-2.038-.7-3.949-1.354-4.352-1.468-.6-.167-.992.65-.992.65-.007.007-.007.02-.013.027a1.074 1.074 0 0 0 .215 1.167l12.693 7.054c.007.007.02.007.027.014a1.724 1.724 0 0 0 1.65.02.619.619 0 0 1 .134-.067l9.421-3.111a.583.583 0 0 1 .188-.033h2.1a.536.536 0 1 1 0 1.073h-2.018l-9.32 3.078a2.81 2.81 0 0 1-2.689-.034l-.013-.007-12.773-7.1a.592.592 0 0 1-.121-.094 2.207 2.207 0 0 1-.443-2.454c0-.007.764-1.629 2.239-1.221.476.134 2.38.785 4.412 1.482 1.113.382 2.26.778 3.212 1.1a3.072 3.072 0 0 1-.054-.577v-.013a2.207 2.207 0 0 1 1.951-2.152c.02 0 .047-.007.067-.007h4.903a33.92 33.92 0 0 1 5.8-2.105h.02a16.709 16.709 0 0 1 2.709-.187c.912 0 1.71.033 2.132.06a.534.534 0 0 1-.06 1.066 34.807 34.807 0 0 0-2.065-.061 16.036 16.036 0 0 0-2.528.174.024.024 0 0 0-.02.007 33.777 33.777 0 0 0-5.612 2.052.507.507 0 0 1-.262.067h-4.989a1.134 1.134 0 0 0-.986 1.113 1.621 1.621 0 0 0 .074.516.971.971 0 0 0 .215.355 1.023 1.023 0 0 0 .4.262l.02.006c.013 0 .02.007.034.014l.013.006h6.524a.5.5 0 0 1 .1.007 2.35 2.35 0 0 1 1.884 2.253z" class="cls-1" data-name="Path 19" transform="translate(0 -2146.714)"/>
        <path id="Path_20" d="M4863.623 3079.643h-4.673a.129.129 0 0 0-.087.034.118.118 0 0 0-.04.087v12.613a.108.108 0 0 0 .04.087l.014.014a.145.145 0 0 0 .081.026h4.673a.11.11 0 0 0 .088-.04l.013-.014a.138.138 0 0 0 .027-.08v-12.612a.126.126 0 0 0-.034-.087.118.118 0 0 0-.087-.04zm-4.673-1.073h4.673a1.2 1.2 0 0 1 .852.355 1.186 1.186 0 0 1 .355.845v12.612a1.214 1.214 0 0 1-.315.812.175.175 0 0 0-.034.04 1.2 1.2 0 0 1-.852.355h-4.673a1.212 1.212 0 0 1-.812-.315.2.2 0 0 0-.04-.033 1.2 1.2 0 0 1-.355-.852v-12.612a1.2 1.2 0 0 1 .355-.852 1.186 1.186 0 0 1 .845-.355z" class="cls-1" data-name="Path 20" transform="translate(-3874.655 -1812.124)"/>
    </g>
</svg>
