<svg xmlns="http://www.w3.org/2000/svg" width="34.33" height="28.8" viewBox="0 0 34.33 28.8">
    <defs>
        <style>
            .cls-1{fill:#b6b6b6}
        </style>
    </defs>
    <g id="Group_10" data-name="Group 10" transform="translate(-2 -5.272)">
        <path id="Path_22" d="M4.213 34.072h30.245a1.813 1.813 0 0 0 1.872-1.743V12.545a1.813 1.813 0 0 0-1.872-1.745h-2.911V6.786a1.575 1.575 0 0 0-1.625-1.514H5.49A3.38 3.38 0 0 0 2 8.522v23.489a2.144 2.144 0 0 0 2.213 2.061zm31.077-8.139h-6.906a3.5 3.5 0 1 1 0-6.991h6.906zm0-13.388v5.428h-6.906a4.467 4.467 0 1 0 0 8.929h6.906v5.428a.805.805 0 0 1-.831.774H4.213a1.136 1.136 0 0 1-1.173-1.093V10.832a3.611 3.611 0 0 0 2.449.939h28.969a.805.805 0 0 1 .832.774zm-29.8-6.3h24.431a.567.567 0 0 1 .585.545v4.01H5.49a2.372 2.372 0 0 1-2.45-2.278 2.372 2.372 0 0 1 2.45-2.281z" class="cls-1" data-name="Path 22"/>
        <path id="Path_23" d="M49.244 39.464a2.881 2.881 0 1 0 2.882-2.881 2.885 2.885 0 0 0-2.882 2.881zm2.882-1.484a1.484 1.484 0 1 1-1.485 1.484 1.486 1.486 0 0 1 1.485-1.484z" class="cls-1" data-name="Path 23" transform="translate(-23.873 -17.224)"/>
    </g>
</svg>
