<svg id="Layer_1" data-name="Layer 1" xmlns="http://www.w3.org/2000/svg" viewBox="0 0 731.49 207.9"><title>agora-logo</title><path d="M6998.86,7246.61v23.1c-7.35,5.25-16.8,7.35-25.9,7.35-15.75,0-28.35-10.5-32.55-27-10.15,17.15-26.95,26.6-46.91,26.6-36.05,0-61.95-29.75-61.95-65.1,0-35,25.9-64.75,61.95-64.75,18.55,0,34.66,8.05,45.16,23.1V7150h25.55v86.1c0,10.15,5.95,17.5,16.45,17.5C6987.66,7253.61,6993.61,7251.86,6998.86,7246.61Zm-60.2-44.8c-2.45-17.5-19.6-33.25-40.26-33.25-23.45,0-41.65,19.95-41.65,43s18.2,43.05,41.65,43.05c21,0,37.81-15.75,40.26-33.25Z" transform="translate(-6831.55 -7146.86)"/><path d="M7128.7,7150v148.75c0,25.21-18.2,53.21-44.8,56l-8.75-21.7c15.75-2.45,28-18.55,28-34.31v-45.85c-10.5,15.4-26.95,23.8-45.5,23.8-36,0-61.95-29.75-61.95-65.1,0-35,25.9-64.75,61.95-64.75,18.55,0,35,8.05,45.5,23.8V7150Zm-25.9,51.8c-2.45-17.5-19.6-33.25-40.25-33.25-23.45,0-41.65,19.95-41.65,43s18.2,43.05,41.65,43.05c21,0,37.8-15.75,40.25-33.25Z" transform="translate(-6831.55 -7146.86)"/><path d="M7285.15,7212c0,35.35-29,65.1-64.75,65.1s-64.75-29.75-64.75-65.1c0-35.7,29.05-65.1,64.75-65.1S7285.15,7176.26,7285.15,7212Zm-22.4,0a51.53,51.53,0,0,0-1.4-12.6,20.11,20.11,0,0,1-13.3,4.9c-11.2,0-20.65-9.1-20.65-20.3a18,18,0,0,1,5.25-12.95,52.06,52.06,0,0,0-12.6-1.75c-23.45,0-41.3,19.6-41.3,42.7s18.2,42.7,41.65,42.7S7262.75,7235.06,7262.75,7212Z" transform="translate(-6831.55 -7146.86)"/><path d="M7395.05,7167.51a20.69,20.69,0,0,1-20.65,20.65,19.73,19.73,0,0,1-17.86-12.25c-11.2,5.6-17.84,17.15-18.9,31.15v66.5h-25.55V7150h25.55v20.65c7-13.3,20.31-23.8,35.71-23.8C7385.25,7146.86,7395.05,7156,7395.05,7167.51Z" transform="translate(-6831.55 -7146.86)"/><path d="M7563.05,7246.61v23.1c-7.35,5.25-16.8,7.35-25.9,7.35-15.75,0-28.35-10.5-32.55-27-10.15,17.15-27,26.6-46.9,26.6-36.06,0-62-29.75-62-65.1,0-35,25.9-64.75,62-64.75,18.55,0,34.65,8.05,45.15,23.1V7150h25.55v86.1c0,10.15,6,17.5,16.45,17.5C7551.85,7253.61,7557.8,7251.86,7563.05,7246.61Zm-60.2-44.8c-2.45-17.5-19.6-33.25-40.25-33.25-23.46,0-41.66,19.95-41.66,43s18.2,43.05,41.66,43.05c21,0,37.8-15.75,40.25-33.25Z" transform="translate(-6831.55 -7146.86)"/></svg>